<?xml version="1.0" standalone="no"?>
<!DOCTYPE svg PUBLIC "-//W3C//DTD SVG 20010904//EN"
 "http://www.w3.org/TR/2001/REC-SVG-20010904/DTD/svg10.dtd">
<svg version="1.0" xmlns="http://www.w3.org/2000/svg"
 width="522.000000pt" height="522.000000pt" viewBox="0 0 522.000000 522.000000"
 preserveAspectRatio="xMidYMid meet">
<metadata>
Created by potrace 1.14, written by Peter Selinger 2001-2017
</metadata>
<g transform="translate(0.000000,522.000000) scale(0.100000,-0.100000)"
fill="#000000" stroke="none">
<path d="M4640 3587 c0 -5 -5 -5 -10 -2 -6 4 -18 1 -27 -7 -14 -11 -16 -11 -9
2 4 9 2 8 -7 -2 -8 -10 -17 -15 -20 -11 -4 3 -7 1 -7 -5 0 -6 -7 -9 -15 -6 -9
4 -15 1 -15 -7 0 -10 -3 -10 -12 -1 -8 8 -15 8 -24 2 -6 -6 -38 -17 -70 -26
-32 -8 -65 -20 -74 -27 -33 -27 -81 -48 -92 -41 -6 4 -8 3 -5 -3 4 -7 -8 -14
-31 -18 -20 -4 -42 -11 -49 -17 -7 -5 -17 -7 -23 -3 -5 3 -10 1 -10 -4 0 -6
-3 -10 -7 -10 -5 1 -12 0 -18 -1 -5 -2 -19 -4 -30 -5 -27 -2 -92 -32 -100 -45
-5 -8 -11 -7 -21 1 -11 9 -15 8 -20 -6 -5 -13 -9 -14 -15 -3 -5 8 -9 9 -9 2 0
-7 -10 -15 -22 -19 -13 -4 -25 -8 -28 -9 -3 -1 -15 -7 -26 -14 -12 -6 -24 -8
-28 -5 -3 3 -6 1 -6 -4 0 -6 -11 -10 -25 -8 -14 1 -25 -2 -25 -8 0 -5 -6 -4
-14 2 -10 8 -16 9 -21 1 -3 -6 -11 -8 -16 -5 -5 4 -9 2 -9 -2 0 -5 -18 -8 -39
-8 -22 0 -39 -4 -38 -10 1 -5 -4 -9 -10 -8 -7 2 -13 -2 -13 -7 0 -6 -6 -10
-13 -10 -8 0 -20 -11 -27 -25 -7 -13 -16 -22 -20 -20 -4 3 -14 -3 -21 -12 -12
-14 -12 -16 1 -8 8 4 12 4 7 0 -4 -5 -13 -10 -20 -11 -28 -5 -42 -9 -47 -16
-5 -6 -36 -15 -63 -17 -5 -1 -6 -5 -3 -9 2 -4 -3 -9 -12 -10 -26 -2 -67 -10
-67 -12 0 -1 -14 -3 -31 -5 -18 -1 -47 -12 -66 -23 -19 -12 -38 -19 -41 -15
-4 3 -7 2 -7 -4 0 -9 -54 -28 -72 -24 -5 0 -8 -4 -8 -11 0 -6 -3 -8 -7 -5 -3
4 -13 1 -21 -6 -13 -9 -14 -9 -8 0 5 9 2 11 -8 7 -9 -3 -16 -10 -16 -15 0 -5
-3 -8 -7 -8 -5 1 -10 0 -13 -1 -11 -4 -46 -11 -67 -13 -13 -1 -23 -5 -23 -9 0
-4 -10 -5 -21 -3 -12 2 -36 -2 -54 -9 -19 -8 -36 -12 -39 -8 -3 3 -6 0 -6 -7
0 -7 -5 -9 -10 -6 -6 3 -13 -1 -16 -10 -6 -13 -8 -14 -15 -3 -7 10 -9 10 -9 1
0 -7 -7 -13 -16 -13 -8 0 -12 -4 -9 -10 9 -14 -8 -12 -24 3 -11 10 -13 10 -7
0 6 -12 -5 -18 -26 -14 -5 0 -8 -3 -8 -9 0 -5 -7 -7 -15 -4 -8 4 -15 1 -15 -6
0 -7 -7 -10 -15 -7 -8 4 -17 2 -20 -4 -4 -5 -10 -7 -15 -4 -5 3 -11 1 -15 -5
-4 -6 -11 -8 -16 -5 -5 4 -9 1 -9 -5 0 -6 -5 -8 -10 -5 -6 4 -18 1 -27 -7 -14
-11 -16 -11 -8 2 7 13 6 13 -7 2 -13 -10 -17 -10 -20 0 -4 11 -8 11 -20 0 -11
-9 -17 -9 -20 -2 -2 7 -13 3 -28 -9 -14 -11 -30 -25 -36 -29 -17 -15 -54 -33
-54 -27 0 3 -13 -1 -29 -9 -16 -9 -31 -12 -35 -9 -3 4 -6 1 -6 -6 0 -7 -4 -9
-10 -6 -5 3 -10 0 -10 -7 0 -9 -3 -9 -10 2 -8 12 -10 12 -10 1 0 -8 -3 -11 -7
-8 -3 4 -11 2 -18 -3 -6 -5 -21 -11 -32 -13 -12 -2 -28 -9 -37 -16 -10 -8 -16
-9 -16 -3 0 7 -10 6 -27 -3 -15 -8 -30 -12 -35 -9 -4 3 -8 1 -8 -5 0 -5 -9 -8
-20 -6 -11 2 -20 -2 -20 -8 0 -7 -4 -6 -10 3 -6 9 -10 10 -10 3 0 -6 -9 -10
-20 -8 -11 2 -24 -3 -30 -13 -5 -9 -10 -13 -10 -9 0 5 -12 -1 -26 -12 -15 -12
-32 -21 -38 -21 -6 0 -4 5 4 10 9 6 10 10 3 10 -7 0 -16 -7 -21 -17 -6 -10
-22 -16 -40 -16 -17 0 -29 -3 -27 -7 3 -4 -20 -7 -49 -6 -30 0 -52 5 -48 10 3
5 -2 7 -11 3 -10 -3 -17 -2 -17 3 0 5 -12 7 -26 4 -14 -3 -23 -1 -20 4 3 5 -8
8 -24 7 -17 -1 -30 3 -30 8 0 6 -3 7 -7 4 -3 -4 -13 -1 -21 6 -13 10 -14 9 -7
-3 7 -12 6 -13 -7 -3 -8 7 -18 10 -21 6 -4 -3 -7 -1 -7 6 0 7 -4 9 -10 6 -5
-3 -19 -1 -30 5 -15 8 -20 8 -20 -2 0 -10 -2 -10 -9 0 -4 7 -23 16 -42 19 -19
3 -37 10 -40 15 -4 7 -9 6 -13 -1 -5 -7 -14 -6 -30 4 -12 8 -25 12 -29 9 -3
-3 -12 -2 -19 2 -13 9 -29 13 -60 16 -10 1 -18 6 -18 11 0 4 -4 6 -9 2 -5 -3
-28 1 -50 9 -27 9 -38 10 -34 2 4 -6 -1 -5 -10 3 -9 7 -17 10 -17 5 0 -4 -5
-3 -11 3 -6 6 -18 9 -25 6 -8 -3 -14 -1 -14 4 0 5 -16 10 -36 11 -20 2 -46 7
-56 13 -11 6 -26 8 -34 5 -8 -3 -14 -1 -14 5 0 6 -4 7 -10 4 -5 -3 -10 -3 -10
2 0 4 -16 9 -36 11 -20 1 -41 5 -47 9 -10 6 -51 14 -84 16 -7 0 -13 3 -13 6 0
6 -29 12 -72 14 -10 1 -18 5 -18 9 0 4 -3 7 -8 7 -4 -1 -20 -1 -35 0 -20 1
-26 5 -21 14 5 8 2 8 -9 -2 -10 -7 -17 -9 -17 -3 0 6 -8 9 -17 8 -10 -2 -30 0
-45 5 -16 4 -30 3 -34 -2 -3 -5 -10 -6 -16 -3 -6 4 -9 3 -6 -2 3 -5 2 -18 -1
-28 -12 -32 33 -61 124 -82 37 -8 166 -45 188 -53 15 -6 27 -8 27 -6 0 2 12 0
28 -6 25 -10 187 -52 492 -129 113 -29 140 -35 210 -46 63 -10 75 -12 93 -19
46 -19 -15 -52 -110 -60 -12 -1 -28 -7 -36 -14 -9 -6 -28 -14 -43 -17 -16 -3
-31 -8 -34 -12 -5 -7 -24 -13 -52 -15 -9 -1 -14 -5 -12 -9 5 -8 3 -9 -31 -13
-12 -1 -30 -7 -40 -13 -11 -5 -23 -10 -27 -11 -5 -1 -10 -2 -13 -2 -3 -1 -9
-3 -15 -4 -5 -1 -15 -3 -21 -4 -5 0 -8 -5 -5 -9 3 -4 -8 -7 -25 -6 -16 1 -26
-2 -23 -7 3 -5 -3 -10 -13 -10 -43 -3 -48 -5 -45 -17 1 -8 -2 -11 -7 -7 -12 7
-62 -5 -57 -14 2 -3 -7 -7 -21 -8 -14 0 -28 -5 -32 -10 -6 -8 -27 -15 -48 -16
-7 0 -13 -4 -13 -8 0 -5 -16 -11 -35 -15 -19 -3 -35 -10 -35 -16 0 -5 -5 -6
-10 -3 -6 3 -10 1 -10 -6 0 -7 -3 -9 -7 -6 -3 4 -13 1 -21 -6 -13 -10 -15 -9
-8 3 6 13 6 13 -6 0 -7 -9 -22 -16 -33 -16 -11 0 -19 -6 -17 -13 2 -8 -3 -11
-13 -8 -8 4 -15 1 -15 -6 0 -9 -3 -8 -9 1 -7 11 -9 10 -15 -3 -3 -9 -10 -13
-16 -10 -5 3 -10 1 -10 -5 0 -7 -7 -10 -15 -6 -8 3 -15 1 -15 -5 0 -6 -4 -8
-9 -5 -5 3 -14 -1 -21 -9 -7 -8 -16 -12 -21 -9 -5 3 -9 0 -9 -6 0 -6 -4 -8
-10 -5 -5 3 -10 2 -10 -4 0 -5 -11 -8 -24 -7 -18 2 -23 -1 -18 -12 3 -9 1 -13
-5 -9 -6 4 -19 0 -27 -9 -12 -11 -16 -12 -16 -2 0 7 -6 4 -12 -7 -6 -11 -19
-27 -29 -35 -9 -8 -20 -24 -23 -36 -6 -18 -2 -20 36 -21 24 -1 50 5 58 12 8 7
32 15 53 18 20 3 44 11 53 18 9 7 21 14 28 15 20 5 210 72 251 90 22 9 87 34
145 54 58 21 154 58 213 83 60 25 142 55 183 67 41 11 105 34 141 50 37 17 94
37 127 46 34 8 93 28 133 45 81 33 101 34 158 13 56 -21 128 -41 210 -59 39
-9 106 -26 150 -40 44 -13 92 -26 107 -29 15 -2 64 -16 110 -29 46 -14 108
-30 138 -36 53 -11 78 -16 119 -25 11 -3 55 -14 98 -27 43 -12 83 -22 88 -23
6 -1 26 -7 45 -13 19 -7 51 -14 70 -16 19 -3 106 -23 192 -46 86 -22 165 -41
176 -41 18 0 62 -42 62 -59 0 -26 124 -50 141 -28 13 17 113 25 144 12 53 -24
126 -45 135 -40 5 3 33 -4 62 -15 29 -11 59 -20 66 -20 22 0 96 -39 132 -70
48 -42 90 -54 153 -44 99 15 166 10 293 -22 76 -19 93 -22 116 -23 9 -1 23 -7
30 -14 7 -7 32 -27 55 -44 34 -25 50 -30 91 -28 98 4 191 90 163 151 -12 26
-72 76 -98 81 -38 9 -94 9 -99 2 -2 -5 -12 -5 -21 -2 -9 4 -14 2 -10 -3 8 -14
-134 3 -200 23 -29 9 -53 19 -53 22 0 6 -17 10 -57 13 -7 1 -13 5 -13 10 0 4
-8 8 -19 8 -10 0 -24 6 -31 14 -6 8 -18 12 -26 9 -8 -3 -14 0 -14 6 0 6 -3 10
-7 10 -20 -3 -34 2 -28 11 3 6 -1 10 -9 10 -9 0 -16 4 -16 8 0 4 -19 9 -42 11
-23 1 -45 4 -49 7 -5 2 -23 -1 -41 -9 -37 -15 -48 -15 -65 -4 -8 5 -13 3 -13
-5 0 -9 -3 -9 -8 -2 -4 6 -27 14 -52 17 -63 9 -102 17 -112 23 -4 3 -18 7 -30
9 -13 3 -47 10 -75 16 -29 5 -56 10 -59 9 -4 -1 -11 5 -16 14 -5 8 -15 13 -23
10 -8 -4 -15 -1 -15 6 0 6 -4 9 -9 6 -5 -4 -11 -1 -13 6 -2 6 -14 13 -26 14
-39 6 -47 9 -53 16 -9 13 -90 12 -98 -1 -4 -6 -15 -9 -24 -5 -10 3 -17 1 -17
-6 0 -6 -5 -8 -12 -3 -7 4 -21 6 -30 5 -10 -2 -18 1 -18 5 0 5 -10 10 -22 10
-47 3 -68 8 -68 16 0 4 -4 6 -9 2 -5 -3 -12 -1 -15 4 -3 4 -19 7 -36 5 -16 -2
-30 1 -30 7 0 6 -4 7 -10 4 -5 -3 -10 -2 -10 2 0 5 -13 8 -30 7 -16 -1 -30 1
-30 6 0 4 -12 8 -26 8 -15 -1 -29 5 -33 11 -4 6 -15 9 -23 6 -9 -4 -19 -2 -22
4 -4 6 -13 8 -21 5 -8 -3 -20 -2 -27 2 -7 5 -22 10 -32 11 -11 2 -25 8 -33 14
-9 8 -17 8 -27 0 -9 -8 -15 -8 -18 -2 -1 6 -17 12 -33 14 -17 2 -36 7 -43 11
-7 4 -16 5 -21 1 -5 -3 -12 -1 -16 4 -3 5 -14 8 -25 6 -11 -2 -20 -1 -20 3 0
4 -12 9 -26 10 -15 1 -33 7 -40 13 -11 9 -14 8 -14 -1 0 -9 -3 -10 -14 -1 -7
6 -25 12 -39 13 -15 1 -29 9 -32 16 -4 11 -8 12 -20 2 -11 -9 -15 -9 -15 -1 0
7 -4 9 -10 6 -5 -3 -10 -1 -10 6 0 10 -3 10 -12 1 -9 -9 -16 -8 -30 5 -13 11
-18 12 -18 3 0 -9 -3 -10 -13 -1 -8 6 -17 8 -20 4 -4 -3 -7 -1 -7 5 0 6 -6 9
-14 6 -8 -3 -17 -1 -20 4 -3 5 -17 8 -31 7 -14 -2 -25 0 -25 5 0 5 -11 7 -25
5 -14 -1 -25 2 -25 7 0 5 -4 6 -10 3 -5 -3 -10 -1 -10 5 0 6 -5 8 -10 5 -6 -4
-18 -1 -27 7 -14 11 -16 11 -8 -2 7 -12 6 -13 -7 -3 -8 7 -18 10 -21 6 -4 -3
-7 0 -7 7 0 7 -3 10 -7 7 -3 -4 -13 -1 -21 6 -13 10 -14 9 -7 -3 6 -12 5 -12
-5 -3 -7 6 -19 9 -26 6 -8 -3 -22 -2 -31 2 -10 4 -31 8 -48 9 -41 1 -43 37 -2
42 16 1 34 7 40 12 13 10 60 19 140 27 30 3 72 18 115 42 37 21 69 38 72 38 3
1 21 6 40 12 69 22 182 45 195 39 23 -8 84 16 124 51 41 35 57 42 46 21 -4 -7
-1 -6 7 2 16 19 64 40 104 44 16 2 30 5 32 6 1 1 5 3 10 4 4 1 24 10 45 20 21
10 40 16 43 13 4 -3 28 3 54 13 35 14 50 16 59 7 8 -8 11 -8 11 2 0 7 5 9 10
6 6 -4 16 -2 23 3 25 20 106 62 121 62 9 0 16 4 16 9 0 6 9 9 20 8 11 -1 20
-4 20 -7 0 -3 9 -6 20 -7 11 -1 20 2 20 6 0 5 10 9 23 9 20 1 54 7 67 12 3 1
8 2 12 1 4 0 5 6 2 14 -4 10 0 15 11 15 10 0 26 10 36 22 17 19 22 20 43 9 32
-18 100 -9 161 19 28 13 52 27 55 31 14 19 91 50 116 46 16 -3 44 2 63 9 19 8
48 17 65 20 17 3 49 15 71 28 22 13 55 26 73 29 19 4 46 15 60 25 28 20 130
58 192 72 19 5 63 20 96 34 34 14 78 28 97 30 45 6 94 31 110 56 6 11 17 20
23 20 7 0 10 8 7 20 -3 13 0 20 8 20 11 0 11 2 2 8 -7 5 -14 20 -15 34 -1 15
-5 26 -8 26 -3 0 -8 1 -12 2 -5 1 -14 3 -20 4 -7 1 -12 6 -11 11 1 6 -12 10
-28 10 -16 0 -29 -4 -29 -8z"/>
</g>
</svg>
